<svg xmlns="http://www.w3.org/2000/svg" xmlns:xlink="http://www.w3.org/1999/xlink" version="1.1" width="256" height="256" viewBox="0 0 256 256" xml:space="preserve">

<defs>
</defs>
<g style="stroke: none; stroke-width: 0; stroke-dasharray: none; stroke-linecap: butt; stroke-linejoin: miter; stroke-miterlimit: 10; fill: none; fill-rule: nonzero; opacity: 1;" transform="translate(1.4065934065934016 1.4065934065934016) scale(2.81 2.81)" >
	<path d="M 82.817 7.184 c -9.577 -9.578 -25.162 -9.58 -34.741 0 c -8.012 8.011 -9.47 20.58 -3.599 30.178 l -4.215 10.424 c -0.226 0.559 -0.096 1.197 0.33 1.623 c 0.287 0.287 0.67 0.439 1.061 0.439 c 0.189 0 0.379 -0.036 0.562 -0.11 l 10.427 -4.214 c 9.597 5.87 22.165 4.412 30.175 -3.599 C 92.395 32.347 92.395 16.762 82.817 7.184 z M 58.627 26.313 c -0.49 0.488 -1.079 0.732 -1.767 0.732 s -1.273 -0.247 -1.758 -0.74 s -0.727 -1.077 -0.727 -1.753 c 0 -0.675 0.242 -1.259 0.727 -1.753 c 0.484 -0.493 1.07 -0.74 1.758 -0.74 s 1.276 0.244 1.767 0.732 c 0.489 0.488 0.734 1.075 0.734 1.761 C 59.361 25.238 59.116 25.824 58.627 26.313 z M 67.207 26.313 c -0.49 0.488 -1.079 0.732 -1.767 0.732 s -1.273 -0.247 -1.758 -0.74 s -0.727 -1.077 -0.727 -1.753 c 0 -0.675 0.242 -1.259 0.727 -1.753 c 0.484 -0.493 1.07 -0.74 1.758 -0.74 s 1.276 0.244 1.767 0.732 c 0.489 0.488 0.734 1.075 0.734 1.761 C 67.941 25.238 67.696 25.824 67.207 26.313 z M 75.788 26.313 c -0.49 0.488 -1.079 0.732 -1.767 0.732 s -1.273 -0.247 -1.758 -0.74 s -0.727 -1.077 -0.727 -1.753 c 0 -0.675 0.242 -1.259 0.727 -1.753 c 0.484 -0.493 1.07 -0.74 1.758 -0.74 s 1.276 0.244 1.767 0.732 c 0.489 0.488 0.734 1.075 0.734 1.761 C 76.522 25.238 76.277 25.824 75.788 26.313 z" style="stroke: none; stroke-width: 1; stroke-dasharray: none; stroke-linecap: butt; stroke-linejoin: miter; stroke-miterlimit: 10; fill: rgb(254,127,64); fill-rule: nonzero; opacity: 1;" transform=" matrix(1 0 0 1 0 0) " stroke-linecap="round" />
	<path d="M 71.927 83.153 c 0.191 -0.229 0.367 -0.466 0.536 -0.707 c 0.026 -0.037 0.055 -0.073 0.081 -0.11 c 0.152 -0.223 0.289 -0.452 0.422 -0.683 c 0.035 -0.06 0.072 -0.119 0.106 -0.18 c 0.12 -0.22 0.228 -0.444 0.331 -0.67 c 0.036 -0.077 0.074 -0.154 0.107 -0.232 c 0.093 -0.217 0.175 -0.436 0.252 -0.657 c 0.033 -0.092 0.067 -0.184 0.096 -0.277 c 0.068 -0.212 0.127 -0.426 0.181 -0.642 c 0.027 -0.106 0.054 -0.212 0.077 -0.319 c 0.045 -0.207 0.083 -0.414 0.116 -0.623 c 0.019 -0.119 0.036 -0.238 0.051 -0.357 c 0.025 -0.2 0.043 -0.4 0.057 -0.601 c 0.009 -0.13 0.015 -0.26 0.019 -0.391 c 0.006 -0.192 0.007 -0.384 0.002 -0.577 c -0.003 -0.14 -0.011 -0.279 -0.02 -0.419 c -0.012 -0.184 -0.026 -0.366 -0.047 -0.549 c -0.017 -0.149 -0.04 -0.297 -0.064 -0.445 c -0.028 -0.173 -0.056 -0.346 -0.092 -0.518 c -0.033 -0.156 -0.073 -0.311 -0.113 -0.466 c -0.042 -0.162 -0.083 -0.325 -0.133 -0.485 c -0.05 -0.162 -0.11 -0.321 -0.168 -0.481 c -0.055 -0.151 -0.107 -0.302 -0.169 -0.451 c -0.069 -0.167 -0.149 -0.329 -0.228 -0.493 c -0.066 -0.138 -0.128 -0.277 -0.2 -0.412 c -0.092 -0.172 -0.196 -0.339 -0.299 -0.507 c -0.074 -0.121 -0.141 -0.244 -0.22 -0.363 c -0.124 -0.186 -0.262 -0.364 -0.399 -0.544 C 72.14 69.9 72.076 69.802 72 69.71 c -0.219 -0.268 -0.452 -0.528 -0.702 -0.777 l -6.742 -6.742 c -0.25 -0.25 -0.51 -0.483 -0.777 -0.702 c -0.092 -0.075 -0.189 -0.139 -0.282 -0.211 c -0.18 -0.137 -0.359 -0.276 -0.545 -0.4 c -0.118 -0.079 -0.241 -0.146 -0.361 -0.219 c -0.168 -0.103 -0.336 -0.207 -0.509 -0.3 c -0.135 -0.072 -0.274 -0.134 -0.411 -0.199 c -0.164 -0.078 -0.327 -0.159 -0.494 -0.228 c -0.149 -0.062 -0.3 -0.114 -0.452 -0.169 c -0.159 -0.058 -0.318 -0.117 -0.479 -0.167 c -0.162 -0.05 -0.325 -0.091 -0.489 -0.134 c -0.154 -0.04 -0.307 -0.08 -0.462 -0.112 c -0.173 -0.036 -0.347 -0.065 -0.522 -0.093 c -0.147 -0.023 -0.294 -0.046 -0.442 -0.063 c -0.184 -0.021 -0.367 -0.036 -0.551 -0.047 c -0.139 -0.009 -0.278 -0.016 -0.418 -0.02 c -0.193 -0.005 -0.386 -0.003 -0.579 0.002 c -0.129 0.004 -0.258 0.01 -0.388 0.018 c -0.202 0.013 -0.403 0.032 -0.604 0.057 c -0.118 0.015 -0.236 0.032 -0.353 0.051 c -0.21 0.033 -0.418 0.071 -0.626 0.116 c -0.106 0.023 -0.211 0.05 -0.316 0.077 c -0.217 0.055 -0.432 0.113 -0.645 0.182 c -0.092 0.03 -0.183 0.063 -0.274 0.095 c -0.222 0.078 -0.443 0.16 -0.661 0.254 c -0.077 0.033 -0.152 0.071 -0.228 0.105 c -0.227 0.104 -0.453 0.212 -0.673 0.333 c -0.06 0.033 -0.117 0.07 -0.176 0.104 c -0.233 0.134 -0.463 0.272 -0.687 0.424 c -0.037 0.025 -0.071 0.053 -0.107 0.079 c -0.242 0.169 -0.48 0.346 -0.71 0.538 l 0 0 l 0 0 c -0.238 0.199 -0.472 0.405 -0.696 0.628 l -4.561 4.561 c -0.584 0.584 -1.532 0.584 -2.116 0 L 23.248 47.037 c -0.584 -0.584 -0.584 -1.532 0 -2.116 l 4.561 -4.561 c 0.223 -0.223 0.429 -0.458 0.628 -0.696 l 0 0 c 0 0 0 0 0 0 c 0.191 -0.229 0.367 -0.466 0.536 -0.707 c 0.026 -0.037 0.055 -0.073 0.081 -0.11 c 0.152 -0.223 0.289 -0.452 0.422 -0.683 c 0.035 -0.06 0.072 -0.119 0.106 -0.18 c 0.12 -0.22 0.228 -0.444 0.331 -0.67 c 0.036 -0.077 0.074 -0.154 0.107 -0.232 c 0.093 -0.217 0.175 -0.436 0.252 -0.657 c 0.033 -0.092 0.067 -0.184 0.096 -0.277 c 0.068 -0.212 0.127 -0.426 0.181 -0.642 c 0.027 -0.106 0.054 -0.212 0.077 -0.319 c 0.045 -0.207 0.083 -0.414 0.116 -0.623 c 0.019 -0.119 0.036 -0.238 0.051 -0.357 c 0.025 -0.2 0.043 -0.4 0.056 -0.601 c 0.009 -0.13 0.015 -0.26 0.019 -0.391 c 0.006 -0.192 0.007 -0.384 0.002 -0.577 c -0.003 -0.14 -0.011 -0.279 -0.02 -0.419 c -0.012 -0.184 -0.026 -0.366 -0.047 -0.549 c -0.017 -0.149 -0.04 -0.297 -0.064 -0.445 c -0.028 -0.173 -0.056 -0.346 -0.092 -0.518 c -0.033 -0.156 -0.073 -0.311 -0.113 -0.466 c -0.042 -0.162 -0.083 -0.325 -0.133 -0.485 c -0.05 -0.162 -0.11 -0.321 -0.168 -0.481 c -0.055 -0.151 -0.107 -0.302 -0.169 -0.451 c -0.069 -0.167 -0.149 -0.329 -0.228 -0.493 c -0.066 -0.138 -0.128 -0.277 -0.2 -0.412 c -0.092 -0.172 -0.196 -0.339 -0.299 -0.507 c -0.074 -0.121 -0.141 -0.244 -0.22 -0.363 c -0.124 -0.186 -0.262 -0.364 -0.399 -0.544 c -0.072 -0.094 -0.136 -0.192 -0.212 -0.284 c -0.219 -0.268 -0.452 -0.528 -0.702 -0.777 l -6.742 -6.742 c -0.25 -0.25 -0.51 -0.483 -0.777 -0.702 c -0.092 -0.075 -0.189 -0.139 -0.282 -0.211 c -0.18 -0.137 -0.359 -0.276 -0.545 -0.4 c -0.118 -0.079 -0.241 -0.146 -0.361 -0.219 c -0.168 -0.103 -0.336 -0.207 -0.509 -0.3 c -0.135 -0.072 -0.274 -0.134 -0.411 -0.199 c -0.164 -0.078 -0.327 -0.159 -0.494 -0.228 c -0.149 -0.062 -0.3 -0.114 -0.452 -0.169 c -0.159 -0.058 -0.318 -0.117 -0.479 -0.167 c -0.162 -0.05 -0.325 -0.091 -0.489 -0.134 c -0.154 -0.04 -0.307 -0.08 -0.462 -0.112 c -0.173 -0.036 -0.347 -0.065 -0.522 -0.093 c -0.147 -0.023 -0.294 -0.046 -0.442 -0.063 c -0.184 -0.021 -0.367 -0.036 -0.551 -0.047 c -0.139 -0.009 -0.278 -0.016 -0.418 -0.02 c -0.193 -0.005 -0.386 -0.003 -0.579 0.002 c -0.129 0.004 -0.258 0.01 -0.388 0.018 c -0.202 0.013 -0.403 0.032 -0.604 0.057 c -0.118 0.015 -0.236 0.032 -0.353 0.051 c -0.21 0.033 -0.418 0.071 -0.626 0.116 c -0.106 0.023 -0.211 0.05 -0.316 0.077 c -0.217 0.055 -0.432 0.113 -0.645 0.182 c -0.092 0.03 -0.183 0.063 -0.274 0.095 c -0.222 0.078 -0.443 0.16 -0.661 0.254 c -0.077 0.033 -0.152 0.071 -0.228 0.105 c -0.227 0.104 -0.453 0.212 -0.673 0.333 c -0.06 0.033 -0.117 0.07 -0.176 0.104 c -0.233 0.134 -0.463 0.272 -0.687 0.424 c -0.037 0.025 -0.071 0.053 -0.107 0.079 c -0.242 0.169 -0.48 0.346 -0.71 0.538 l 0 0 l 0 0 c -0.238 0.199 -0.472 0.405 -0.696 0.628 c -9.348 8.894 -10.184 29.495 12.82 52.327 c 22.832 23.004 43.433 22.168 52.327 12.82 C 71.522 83.626 71.727 83.391 71.927 83.153 L 71.927 83.153 C 71.927 83.153 71.927 83.153 71.927 83.153 z" style="stroke: none; stroke-width: 1; stroke-dasharray: none; stroke-linecap: butt; stroke-linejoin: miter; stroke-miterlimit: 10; fill: rgb(254,127,64); fill-rule: nonzero; opacity: 1;" transform=" matrix(1 0 0 1 0 0) " stroke-linecap="round" />
	<path d="M 13.636 15.842 c 0.077 0 0.155 0.001 0.233 0.003 c 0.137 0.003 0.273 0.011 0.41 0.02 c 0.181 0.012 0.36 0.025 0.541 0.046 c 0.145 0.017 0.289 0.039 0.433 0.062 c 0.171 0.027 0.342 0.055 0.512 0.091 c 0.14 0.029 0.279 0.065 0.453 0.11 l 0.045 0.012 c 0.145 0.037 0.29 0.075 0.434 0.119 c 0.137 0.043 0.273 0.092 0.408 0.141 l 0.061 0.022 l 0.095 0.034 c 0.117 0.042 0.233 0.084 0.348 0.132 c 0.138 0.058 0.274 0.123 0.41 0.188 l 0.075 0.036 l 0.119 0.056 c 0.095 0.045 0.19 0.089 0.284 0.139 c 0.142 0.076 0.281 0.161 0.419 0.245 l 0.079 0.048 l 0.128 0.076 c 0.076 0.045 0.152 0.089 0.226 0.138 c 0.168 0.112 0.329 0.235 0.49 0.359 l 0.044 0.034 L 20 18.04 c 0.054 0.039 0.107 0.077 0.159 0.119 c 0.27 0.221 0.527 0.453 0.762 0.688 l 6.742 6.742 c 0.235 0.235 0.467 0.492 0.688 0.762 c 0.043 0.052 0.082 0.106 0.121 0.16 l 0.087 0.118 l 0.037 0.049 c 0.122 0.159 0.244 0.319 0.354 0.484 c 0.05 0.075 0.095 0.152 0.14 0.229 l 0.075 0.127 l 0.049 0.081 c 0.084 0.137 0.168 0.275 0.243 0.416 c 0.05 0.094 0.095 0.19 0.14 0.285 l 0.056 0.118 l 0.036 0.076 c 0.065 0.135 0.13 0.27 0.187 0.407 c 0.047 0.113 0.088 0.228 0.13 0.343 l 0.036 0.099 l 0.023 0.062 c 0.05 0.136 0.099 0.272 0.142 0.41 c 0.044 0.14 0.08 0.282 0.117 0.424 l 0.021 0.08 c 0.037 0.143 0.074 0.285 0.104 0.429 c 0.036 0.169 0.063 0.338 0.09 0.508 c 0.023 0.145 0.046 0.291 0.063 0.437 c 0.021 0.179 0.035 0.359 0.046 0.539 c 0.009 0.137 0.016 0.274 0.02 0.411 c 0.005 0.189 0.003 0.377 -0.002 0.566 c -0.004 0.128 -0.01 0.255 -0.018 0.383 c -0.013 0.197 -0.031 0.393 -0.055 0.589 c -0.015 0.117 -0.032 0.234 -0.05 0.35 c -0.032 0.205 -0.069 0.408 -0.114 0.611 c -0.021 0.098 -0.046 0.194 -0.076 0.313 c -0.053 0.211 -0.111 0.421 -0.177 0.629 c -0.021 0.066 -0.044 0.131 -0.068 0.196 l -0.027 0.076 c -0.076 0.217 -0.156 0.432 -0.247 0.644 c -0.02 0.047 -0.042 0.093 -0.064 0.14 l -0.041 0.087 c -0.102 0.222 -0.207 0.441 -0.325 0.657 c -0.018 0.033 -0.037 0.065 -0.057 0.097 l -0.047 0.08 c -0.158 0.276 -0.286 0.483 -0.414 0.67 l -0.038 0.051 l -0.042 0.057 c -0.192 0.273 -0.359 0.494 -0.525 0.693 c -0.231 0.276 -0.427 0.493 -0.616 0.682 l -4.561 4.561 c -0.664 0.664 -0.664 1.744 0 2.408 l 19.715 19.715 c 0.322 0.322 0.749 0.499 1.204 0.499 s 0.882 -0.177 1.204 -0.499 l 4.561 -4.561 c 0.191 -0.191 0.402 -0.381 0.682 -0.616 c 0.2 -0.167 0.421 -0.335 0.696 -0.527 l 0.055 -0.041 l 0.05 -0.036 c 0.189 -0.129 0.397 -0.257 0.674 -0.416 l 0.077 -0.046 c 0.032 -0.019 0.063 -0.038 0.096 -0.056 c 0.216 -0.119 0.437 -0.224 0.66 -0.326 l 0.086 -0.04 c 0.046 -0.022 0.091 -0.043 0.138 -0.063 c 0.213 -0.092 0.43 -0.172 0.648 -0.249 l 0.078 -0.028 c 0.063 -0.023 0.127 -0.045 0.191 -0.066 c 0.209 -0.067 0.42 -0.125 0.656 -0.184 c 0.095 -0.024 0.19 -0.048 0.286 -0.069 c 0.204 -0.045 0.408 -0.082 0.614 -0.114 c 0.115 -0.018 0.231 -0.035 0.346 -0.05 c 0.197 -0.024 0.394 -0.043 0.593 -0.056 c 0.127 -0.008 0.253 -0.014 0.38 -0.018 c 0.112 -0.003 0.223 -0.005 0.335 -0.005 c 0.077 0 0.155 0.001 0.232 0.003 c 0.137 0.003 0.273 0.011 0.41 0.02 c 0.181 0.012 0.36 0.025 0.541 0.046 c 0.145 0.017 0.289 0.039 0.433 0.062 c 0.171 0.027 0.342 0.055 0.512 0.091 c 0.14 0.029 0.279 0.065 0.453 0.11 l 0.045 0.012 c 0.145 0.037 0.29 0.075 0.434 0.119 c 0.138 0.043 0.273 0.092 0.409 0.141 l 0.061 0.022 l 0.095 0.034 c 0.117 0.042 0.233 0.084 0.348 0.131 c 0.138 0.058 0.274 0.123 0.41 0.188 l 0.074 0.036 l 0.119 0.056 c 0.095 0.045 0.19 0.089 0.284 0.139 c 0.142 0.076 0.281 0.161 0.419 0.245 l 0.079 0.048 l 0.128 0.076 c 0.076 0.045 0.152 0.089 0.226 0.138 c 0.168 0.112 0.329 0.235 0.49 0.359 l 0.044 0.034 l 0.118 0.087 c 0.054 0.039 0.107 0.077 0.159 0.119 c 0.27 0.221 0.527 0.453 0.762 0.688 l 6.742 6.742 c 0.235 0.235 0.467 0.492 0.688 0.762 c 0.043 0.052 0.082 0.106 0.121 0.16 l 0.087 0.118 l 0.037 0.048 c 0.122 0.159 0.244 0.319 0.354 0.484 c 0.05 0.075 0.095 0.152 0.14 0.229 l 0.075 0.127 l 0.049 0.081 c 0.084 0.137 0.168 0.275 0.243 0.416 c 0.05 0.094 0.095 0.189 0.14 0.285 l 0.056 0.118 l 0.037 0.076 c 0.065 0.135 0.13 0.269 0.187 0.407 c 0.047 0.113 0.088 0.228 0.13 0.343 l 0.036 0.098 l 0.022 0.061 c 0.05 0.136 0.099 0.272 0.142 0.411 c 0.044 0.14 0.08 0.282 0.117 0.424 l 0.021 0.08 c 0.037 0.143 0.074 0.285 0.104 0.429 c 0.036 0.169 0.063 0.338 0.09 0.508 c 0.023 0.145 0.046 0.29 0.063 0.437 c 0.021 0.179 0.035 0.359 0.046 0.539 c 0.009 0.137 0.016 0.274 0.02 0.411 c 0.005 0.189 0.003 0.377 -0.002 0.566 c -0.004 0.128 -0.01 0.256 -0.018 0.383 c -0.013 0.197 -0.031 0.393 -0.055 0.589 c -0.015 0.117 -0.032 0.234 -0.05 0.35 c -0.032 0.205 -0.069 0.408 -0.114 0.611 c -0.022 0.098 -0.046 0.195 -0.076 0.313 c -0.053 0.211 -0.111 0.421 -0.177 0.629 c -0.021 0.066 -0.044 0.13 -0.067 0.195 l -0.027 0.077 c -0.076 0.217 -0.156 0.432 -0.247 0.644 c -0.02 0.047 -0.042 0.094 -0.064 0.14 l -0.041 0.087 c -0.102 0.222 -0.207 0.441 -0.325 0.657 c -0.018 0.033 -0.037 0.065 -0.057 0.097 l -0.047 0.08 c -0.158 0.276 -0.286 0.483 -0.414 0.67 l -0.037 0.051 l -0.042 0.057 c -0.192 0.274 -0.359 0.494 -0.525 0.693 c -0.231 0.276 -0.427 0.493 -0.62 0.686 c -3.735 3.925 -9.305 6.087 -15.683 6.087 c -11.336 0 -24.244 -6.716 -36.348 -18.911 C 6.803 58.66 0.088 45.646 0.208 34.235 c 0.066 -6.249 2.227 -11.712 6.089 -15.387 c 0.191 -0.191 0.402 -0.381 0.682 -0.616 c 0.2 -0.167 0.421 -0.335 0.695 -0.527 l 0.055 -0.041 l 0.05 -0.036 c 0.189 -0.129 0.397 -0.257 0.673 -0.416 l 0.077 -0.046 c 0.032 -0.019 0.063 -0.038 0.096 -0.056 c 0.216 -0.119 0.437 -0.224 0.66 -0.326 l 0.086 -0.04 C 9.418 16.722 9.463 16.7 9.51 16.68 c 0.213 -0.092 0.43 -0.172 0.648 -0.249 l 0.077 -0.028 c 0.063 -0.023 0.127 -0.045 0.191 -0.066 c 0.209 -0.067 0.42 -0.125 0.655 -0.184 c 0.096 -0.024 0.191 -0.048 0.287 -0.07 c 0.204 -0.045 0.408 -0.082 0.614 -0.114 c 0.115 -0.018 0.231 -0.035 0.346 -0.05 c 0.197 -0.024 0.394 -0.043 0.593 -0.056 c 0.127 -0.009 0.253 -0.014 0.38 -0.018 C 13.413 15.843 13.524 15.842 13.636 15.842 M 13.636 15.635 c -0.114 0 -0.227 0.002 -0.341 0.005 c -0.129 0.004 -0.258 0.01 -0.388 0.018 c -0.202 0.013 -0.403 0.032 -0.604 0.057 c -0.118 0.015 -0.236 0.032 -0.353 0.051 c -0.21 0.033 -0.418 0.071 -0.626 0.116 c -0.106 0.023 -0.211 0.05 -0.316 0.077 c -0.217 0.055 -0.432 0.113 -0.645 0.182 c -0.092 0.029 -0.183 0.063 -0.274 0.095 c -0.222 0.078 -0.443 0.16 -0.661 0.254 c -0.077 0.033 -0.152 0.071 -0.228 0.105 c -0.227 0.104 -0.453 0.212 -0.673 0.333 c -0.06 0.033 -0.117 0.07 -0.176 0.104 c -0.233 0.134 -0.463 0.272 -0.687 0.424 c -0.037 0.025 -0.071 0.053 -0.107 0.079 c -0.242 0.169 -0.48 0.346 -0.71 0.538 l 0 0 c -0.238 0.199 -0.472 0.405 -0.696 0.628 c -9.348 8.894 -10.184 29.495 12.82 52.327 C 32.603 84.763 45.441 90 55.465 90 c 6.766 0 12.249 -2.384 15.833 -6.151 c 0.223 -0.223 0.429 -0.458 0.628 -0.696 c 0 0 0 0 0 0 c 0.191 -0.229 0.367 -0.466 0.536 -0.707 c 0.026 -0.037 0.055 -0.073 0.081 -0.11 c 0.152 -0.223 0.289 -0.452 0.422 -0.683 c 0.035 -0.06 0.072 -0.119 0.106 -0.18 c 0.12 -0.22 0.228 -0.444 0.331 -0.67 c 0.036 -0.077 0.074 -0.154 0.107 -0.232 c 0.093 -0.217 0.175 -0.436 0.252 -0.657 c 0.033 -0.092 0.067 -0.184 0.096 -0.277 c 0.068 -0.212 0.127 -0.426 0.181 -0.642 c 0.027 -0.106 0.054 -0.212 0.077 -0.319 c 0.045 -0.207 0.083 -0.414 0.116 -0.623 c 0.019 -0.119 0.036 -0.238 0.051 -0.357 c 0.025 -0.2 0.043 -0.4 0.056 -0.601 c 0.009 -0.13 0.015 -0.26 0.019 -0.391 c 0.006 -0.192 0.007 -0.384 0.002 -0.577 c -0.003 -0.14 -0.011 -0.279 -0.02 -0.419 c -0.012 -0.184 -0.026 -0.366 -0.047 -0.549 c -0.017 -0.149 -0.04 -0.297 -0.064 -0.445 c -0.028 -0.173 -0.056 -0.346 -0.092 -0.518 c -0.033 -0.156 -0.073 -0.311 -0.113 -0.466 c -0.042 -0.162 -0.083 -0.325 -0.133 -0.485 c -0.05 -0.162 -0.11 -0.321 -0.168 -0.481 c -0.055 -0.151 -0.107 -0.302 -0.169 -0.451 c -0.069 -0.167 -0.149 -0.329 -0.228 -0.493 c -0.066 -0.138 -0.128 -0.277 -0.2 -0.412 c -0.092 -0.172 -0.196 -0.339 -0.299 -0.507 c -0.074 -0.121 -0.141 -0.244 -0.22 -0.363 c -0.124 -0.186 -0.262 -0.364 -0.399 -0.544 C 72.14 69.9 72.076 69.802 72 69.71 c -0.219 -0.268 -0.452 -0.528 -0.702 -0.777 l -6.742 -6.742 c -0.25 -0.25 -0.51 -0.483 -0.777 -0.702 c -0.092 -0.075 -0.189 -0.139 -0.282 -0.211 c -0.18 -0.137 -0.359 -0.276 -0.545 -0.4 c -0.118 -0.079 -0.241 -0.146 -0.361 -0.219 c -0.168 -0.103 -0.336 -0.207 -0.508 -0.3 c -0.135 -0.072 -0.274 -0.134 -0.411 -0.199 c -0.164 -0.078 -0.327 -0.159 -0.494 -0.228 c -0.149 -0.062 -0.3 -0.114 -0.452 -0.169 c -0.159 -0.058 -0.318 -0.117 -0.479 -0.167 c -0.162 -0.05 -0.325 -0.091 -0.489 -0.134 c -0.154 -0.04 -0.307 -0.08 -0.462 -0.112 c -0.173 -0.036 -0.347 -0.065 -0.522 -0.093 c -0.147 -0.023 -0.294 -0.046 -0.442 -0.063 c -0.184 -0.021 -0.367 -0.036 -0.551 -0.047 c -0.139 -0.009 -0.278 -0.016 -0.418 -0.02 c -0.079 -0.002 -0.158 -0.003 -0.237 -0.003 c -0.114 0 -0.227 0.002 -0.341 0.005 c -0.129 0.004 -0.258 0.01 -0.388 0.018 c -0.202 0.013 -0.403 0.032 -0.604 0.057 c -0.118 0.015 -0.236 0.032 -0.353 0.051 c -0.21 0.033 -0.418 0.071 -0.626 0.116 c -0.106 0.023 -0.211 0.05 -0.316 0.077 c -0.217 0.055 -0.432 0.113 -0.645 0.182 c -0.092 0.03 -0.183 0.063 -0.274 0.095 c -0.222 0.078 -0.443 0.16 -0.661 0.254 c -0.077 0.033 -0.152 0.071 -0.228 0.105 c -0.227 0.104 -0.453 0.212 -0.673 0.333 c -0.06 0.033 -0.117 0.07 -0.176 0.104 c -0.233 0.134 -0.463 0.272 -0.687 0.424 c -0.037 0.025 -0.071 0.053 -0.107 0.079 c -0.242 0.169 -0.48 0.346 -0.71 0.538 l 0 0 c -0.238 0.199 -0.472 0.405 -0.696 0.628 l -4.561 4.561 c -0.292 0.292 -0.675 0.438 -1.058 0.438 c -0.383 0 -0.766 -0.146 -1.058 -0.438 L 23.248 47.037 c -0.584 -0.584 -0.584 -1.532 0 -2.116 l 4.561 -4.561 c 0.223 -0.223 0.429 -0.458 0.628 -0.696 c 0 0 0 0 0 0 c 0.191 -0.229 0.367 -0.466 0.536 -0.707 c 0.026 -0.037 0.055 -0.073 0.081 -0.11 c 0.152 -0.223 0.289 -0.452 0.422 -0.683 c 0.035 -0.06 0.072 -0.119 0.106 -0.18 c 0.12 -0.22 0.228 -0.444 0.331 -0.67 c 0.035 -0.077 0.074 -0.154 0.107 -0.232 c 0.093 -0.217 0.175 -0.436 0.252 -0.657 c 0.033 -0.092 0.067 -0.184 0.096 -0.277 c 0.068 -0.212 0.127 -0.426 0.181 -0.642 c 0.027 -0.106 0.054 -0.212 0.077 -0.319 c 0.045 -0.207 0.083 -0.414 0.116 -0.623 c 0.019 -0.119 0.036 -0.238 0.051 -0.357 c 0.025 -0.2 0.043 -0.4 0.056 -0.601 c 0.009 -0.13 0.015 -0.26 0.019 -0.391 c 0.006 -0.192 0.007 -0.384 0.002 -0.577 c -0.003 -0.14 -0.011 -0.279 -0.02 -0.419 c -0.012 -0.184 -0.026 -0.366 -0.047 -0.549 c -0.017 -0.149 -0.04 -0.297 -0.064 -0.445 c -0.028 -0.173 -0.056 -0.346 -0.092 -0.518 c -0.033 -0.156 -0.073 -0.311 -0.113 -0.466 c -0.042 -0.162 -0.083 -0.325 -0.133 -0.485 c -0.05 -0.162 -0.11 -0.321 -0.168 -0.481 c -0.055 -0.151 -0.107 -0.302 -0.169 -0.451 c -0.069 -0.167 -0.149 -0.329 -0.228 -0.493 c -0.066 -0.138 -0.128 -0.277 -0.2 -0.412 c -0.092 -0.172 -0.196 -0.339 -0.299 -0.507 c -0.074 -0.121 -0.141 -0.244 -0.22 -0.363 c -0.124 -0.186 -0.262 -0.364 -0.399 -0.544 c -0.072 -0.094 -0.136 -0.192 -0.212 -0.284 c -0.219 -0.268 -0.452 -0.528 -0.702 -0.777 l -6.742 -6.742 c -0.25 -0.25 -0.51 -0.483 -0.777 -0.702 c -0.092 -0.075 -0.189 -0.139 -0.282 -0.211 c -0.18 -0.137 -0.359 -0.276 -0.545 -0.4 c -0.118 -0.079 -0.241 -0.146 -0.361 -0.219 c -0.168 -0.103 -0.336 -0.207 -0.509 -0.3 c -0.135 -0.072 -0.274 -0.134 -0.411 -0.199 c -0.164 -0.078 -0.327 -0.159 -0.494 -0.228 c -0.149 -0.062 -0.301 -0.114 -0.452 -0.169 c -0.159 -0.058 -0.318 -0.117 -0.479 -0.167 c -0.162 -0.05 -0.325 -0.091 -0.489 -0.134 c -0.154 -0.04 -0.307 -0.08 -0.462 -0.112 c -0.173 -0.036 -0.347 -0.065 -0.522 -0.093 c -0.147 -0.023 -0.294 -0.046 -0.442 -0.063 c -0.184 -0.021 -0.367 -0.036 -0.551 -0.047 c -0.139 -0.009 -0.278 -0.016 -0.418 -0.02 C 13.794 15.636 13.715 15.635 13.636 15.635 L 13.636 15.635 z" style="stroke: none; stroke-width: 1; stroke-dasharray: none; stroke-linecap: butt; stroke-linejoin: miter; stroke-miterlimit: 10; fill: rgb(254,127,64); fill-rule: nonzero; opacity: 1;" transform=" matrix(1 0 0 1 0 0) " stroke-linecap="round" />
</g>
</svg>