<svg xmlns="http://www.w3.org/2000/svg" xmlns:xlink="http://www.w3.org/1999/xlink" version="1.1" width="256" height="256" viewBox="0 0 256 256" xml:space="preserve">

<defs>
</defs>
<g style="stroke: none; stroke-width: 0; stroke-dasharray: none; stroke-linecap: butt; stroke-linejoin: miter; stroke-miterlimit: 10; fill: none; fill-rule: nonzero; opacity: 1;" transform="translate(1.4065934065934016 1.4065934065934016) scale(2.81 2.81)" >
	<path d="M 45 0 C 20.147 0 0 20.147 0 45 c 0 24.853 20.147 45 45 45 s 45 -20.147 45 -45 C 90 20.147 69.853 0 45 0 z M 51.902 70.798 c -1.93 1.544 -3.538 2.684 -4.78 3.391 c -2.58 1.467 -4.688 2.242 -6.446 2.369 c -1.613 0.117 -2.951 -0.227 -3.976 -1.02 c -1.011 -0.781 -1.578 -1.918 -1.684 -3.382 c -0.311 -4.303 1.933 -14.656 6.859 -31.647 c 0.207 -0.731 0.294 -1.377 0.255 -1.919 c -0.029 -0.407 -0.152 -0.398 -0.397 -0.38 c -0.664 0.048 -1.443 0.346 -2.315 0.885 c -0.818 0.507 -2.552 1.989 -5.153 4.409 c -0.195 0.182 -0.5 0.252 -0.773 0.177 c -0.272 -0.076 -0.461 -0.281 -0.478 -0.522 c -0.212 -2.939 1.226 -5.829 3.848 -7.729 c 0.994 -0.721 1.977 -1.356 2.92 -1.886 c 3.299 -1.854 6.214 -2.883 8.661 -3.06 c 1.453 -0.105 2.623 0.095 3.477 0.596 c 0.898 0.528 1.389 1.297 1.461 2.287 c 0.048 0.664 -0.215 2.72 -3.041 12.863 c -3.365 12.129 -4.984 19.487 -4.812 21.87 c 0.025 0.343 0.136 0.607 0.342 0.807 c 0.164 0.163 0.288 0.215 0.344 0.211 c 0.445 -0.032 2.09 -0.648 7.734 -5.657 c 0.202 -0.175 0.505 -0.238 0.769 -0.164 c 0.27 0.078 0.454 0.282 0.471 0.52 C 55.377 66.432 54.179 68.976 51.902 70.798 z M 51.28 25.747 c -3.4 0.246 -6.354 -2.311 -6.6 -5.711 c -0.246 -3.4 2.311 -6.354 5.711 -6.6 s 6.354 2.311 6.6 5.711 C 57.236 22.547 54.679 25.502 51.28 25.747 z" style="stroke: none; stroke-width: 1; stroke-dasharray: none; stroke-linecap: butt; stroke-linejoin: miter; stroke-miterlimit: 10; fill: rgb(27,216,248); fill-rule: nonzero; opacity: 1;" transform=" matrix(1 0 0 1 0 0) " stroke-linecap="round" />
</g>
</svg>